<mxfile host="app.diagrams.net" modified="2021-03-08T15:58:52.181Z" agent="5.0 (Windows NT 10.0; Win64; x64) AppleWebKit/537.36 (KHTML, like Gecko) Chrome/89.0.4389.72 Safari/537.36" etag="P_AQSFw1LkuQx4BI5GVf" version="14.4.4" type="github">
  <diagram id="R2lEEEUBdFMjLlhIrx00" name="Page-1">
    <mxGraphModel dx="2241" dy="1946" grid="1" gridSize="10" guides="1" tooltips="1" connect="1" arrows="1" fold="1" page="1" pageScale="1" pageWidth="850" pageHeight="1100" math="0" shadow="0" extFonts="Permanent Marker^https://fonts.googleapis.com/css?family=Permanent+Marker">
      <root>
        <mxCell id="0" />
        <mxCell id="1" parent="0" />
        <mxCell id="_eQYFSkkjT8gTlAMDLFB-44" value="" style="edgeStyle=orthogonalEdgeStyle;rounded=0;orthogonalLoop=1;jettySize=auto;html=1;endArrow=none;endFill=0;" edge="1" parent="1" source="_eQYFSkkjT8gTlAMDLFB-45" target="_eQYFSkkjT8gTlAMDLFB-56">
          <mxGeometry relative="1" as="geometry" />
        </mxCell>
        <mxCell id="_eQYFSkkjT8gTlAMDLFB-85" value="" style="edgeStyle=orthogonalEdgeStyle;rounded=0;orthogonalLoop=1;jettySize=auto;html=1;endArrow=none;endFill=0;" edge="1" parent="1" source="_eQYFSkkjT8gTlAMDLFB-45" target="_eQYFSkkjT8gTlAMDLFB-84">
          <mxGeometry relative="1" as="geometry" />
        </mxCell>
        <mxCell id="_eQYFSkkjT8gTlAMDLFB-45" value="USER" style="rounded=0;whiteSpace=wrap;html=1;fillColor=#1ba1e2;strokeColor=#006EAF;fontColor=#ffffff;" vertex="1" parent="1">
          <mxGeometry x="180" y="-487" width="100" height="40" as="geometry" />
        </mxCell>
        <mxCell id="_eQYFSkkjT8gTlAMDLFB-46" value="" style="edgeStyle=orthogonalEdgeStyle;rounded=0;orthogonalLoop=1;jettySize=auto;html=1;endArrow=none;endFill=0;" edge="1" parent="1" source="_eQYFSkkjT8gTlAMDLFB-47" target="_eQYFSkkjT8gTlAMDLFB-45">
          <mxGeometry relative="1" as="geometry" />
        </mxCell>
        <mxCell id="_eQYFSkkjT8gTlAMDLFB-47" value="#user_id" style="ellipse;whiteSpace=wrap;html=1;" vertex="1" parent="1">
          <mxGeometry x="200" y="-567" width="100" height="40" as="geometry" />
        </mxCell>
        <mxCell id="_eQYFSkkjT8gTlAMDLFB-48" style="edgeStyle=orthogonalEdgeStyle;rounded=0;orthogonalLoop=1;jettySize=auto;html=1;entryX=0.324;entryY=-0.105;entryDx=0;entryDy=0;entryPerimeter=0;endArrow=none;endFill=0;exitX=0.5;exitY=1;exitDx=0;exitDy=0;" edge="1" parent="1" source="_eQYFSkkjT8gTlAMDLFB-49">
          <mxGeometry relative="1" as="geometry">
            <mxPoint x="150" y="-533" as="sourcePoint" />
            <mxPoint x="212.4000000000001" y="-487.20000000000005" as="targetPoint" />
            <Array as="points">
              <mxPoint x="150" y="-508" />
              <mxPoint x="212" y="-508" />
            </Array>
          </mxGeometry>
        </mxCell>
        <mxCell id="_eQYFSkkjT8gTlAMDLFB-49" value="user_name" style="ellipse;whiteSpace=wrap;html=1;" vertex="1" parent="1">
          <mxGeometry x="100" y="-577" width="100" height="40" as="geometry" />
        </mxCell>
        <mxCell id="_eQYFSkkjT8gTlAMDLFB-50" style="edgeStyle=orthogonalEdgeStyle;rounded=0;orthogonalLoop=1;jettySize=auto;html=1;entryX=0;entryY=0.25;entryDx=0;entryDy=0;endArrow=none;endFill=0;" edge="1" parent="1" source="_eQYFSkkjT8gTlAMDLFB-51" target="_eQYFSkkjT8gTlAMDLFB-45">
          <mxGeometry relative="1" as="geometry" />
        </mxCell>
        <mxCell id="_eQYFSkkjT8gTlAMDLFB-51" value="user_email" style="ellipse;whiteSpace=wrap;html=1;" vertex="1" parent="1">
          <mxGeometry x="50" y="-517" width="100" height="40" as="geometry" />
        </mxCell>
        <mxCell id="_eQYFSkkjT8gTlAMDLFB-52" style="edgeStyle=orthogonalEdgeStyle;rounded=0;orthogonalLoop=1;jettySize=auto;html=1;entryX=0;entryY=0.5;entryDx=0;entryDy=0;endArrow=none;endFill=0;" edge="1" parent="1" source="_eQYFSkkjT8gTlAMDLFB-53" target="_eQYFSkkjT8gTlAMDLFB-45">
          <mxGeometry relative="1" as="geometry" />
        </mxCell>
        <mxCell id="_eQYFSkkjT8gTlAMDLFB-53" value="user_address" style="ellipse;whiteSpace=wrap;html=1;" vertex="1" parent="1">
          <mxGeometry x="40" y="-457" width="100" height="40" as="geometry" />
        </mxCell>
        <mxCell id="_eQYFSkkjT8gTlAMDLFB-54" value="" style="edgeStyle=orthogonalEdgeStyle;rounded=0;orthogonalLoop=1;jettySize=auto;html=1;endArrow=none;endFill=0;" edge="1" parent="1" source="_eQYFSkkjT8gTlAMDLFB-56" target="_eQYFSkkjT8gTlAMDLFB-59">
          <mxGeometry relative="1" as="geometry" />
        </mxCell>
        <mxCell id="_eQYFSkkjT8gTlAMDLFB-55" value="" style="edgeStyle=orthogonalEdgeStyle;rounded=0;orthogonalLoop=1;jettySize=auto;html=1;endArrow=none;endFill=0;" edge="1" parent="1" source="_eQYFSkkjT8gTlAMDLFB-56" target="_eQYFSkkjT8gTlAMDLFB-65">
          <mxGeometry relative="1" as="geometry" />
        </mxCell>
        <mxCell id="_eQYFSkkjT8gTlAMDLFB-74" value="" style="edgeStyle=orthogonalEdgeStyle;rounded=0;orthogonalLoop=1;jettySize=auto;html=1;endArrow=none;endFill=0;" edge="1" parent="1" source="_eQYFSkkjT8gTlAMDLFB-56" target="_eQYFSkkjT8gTlAMDLFB-73">
          <mxGeometry relative="1" as="geometry" />
        </mxCell>
        <mxCell id="_eQYFSkkjT8gTlAMDLFB-56" value="HAS" style="rhombus;whiteSpace=wrap;html=1;rounded=0;" vertex="1" parent="1">
          <mxGeometry x="390" y="-507" width="80" height="80" as="geometry" />
        </mxCell>
        <mxCell id="_eQYFSkkjT8gTlAMDLFB-57" value="" style="edgeStyle=orthogonalEdgeStyle;rounded=0;orthogonalLoop=1;jettySize=auto;html=1;endArrow=none;endFill=0;" edge="1" parent="1" target="_eQYFSkkjT8gTlAMDLFB-62">
          <mxGeometry relative="1" as="geometry">
            <mxPoint x="670" y="-467" as="sourcePoint" />
          </mxGeometry>
        </mxCell>
        <mxCell id="_eQYFSkkjT8gTlAMDLFB-58" value="" style="edgeStyle=orthogonalEdgeStyle;rounded=0;orthogonalLoop=1;jettySize=auto;html=1;endArrow=none;endFill=0;" edge="1" parent="1" target="_eQYFSkkjT8gTlAMDLFB-63">
          <mxGeometry relative="1" as="geometry">
            <mxPoint x="630" y="-447" as="sourcePoint" />
          </mxGeometry>
        </mxCell>
        <mxCell id="_eQYFSkkjT8gTlAMDLFB-59" value="ROLES" style="whiteSpace=wrap;html=1;rounded=0;fillColor=#1ba1e2;strokeColor=#006EAF;fontColor=#ffffff;" vertex="1" parent="1">
          <mxGeometry x="600" y="-487" width="80" height="40" as="geometry" />
        </mxCell>
        <mxCell id="_eQYFSkkjT8gTlAMDLFB-60" style="edgeStyle=orthogonalEdgeStyle;rounded=0;orthogonalLoop=1;jettySize=auto;html=1;entryX=1;entryY=0.25;entryDx=0;entryDy=0;endArrow=none;endFill=0;" edge="1" parent="1" source="_eQYFSkkjT8gTlAMDLFB-61" target="_eQYFSkkjT8gTlAMDLFB-59">
          <mxGeometry relative="1" as="geometry" />
        </mxCell>
        <mxCell id="_eQYFSkkjT8gTlAMDLFB-61" value="#role_id" style="ellipse;whiteSpace=wrap;html=1;rounded=0;" vertex="1" parent="1">
          <mxGeometry x="670" y="-537" width="90" height="40" as="geometry" />
        </mxCell>
        <mxCell id="_eQYFSkkjT8gTlAMDLFB-62" value="role_name" style="ellipse;whiteSpace=wrap;html=1;rounded=0;" vertex="1" parent="1">
          <mxGeometry x="720" y="-487" width="80" height="40" as="geometry" />
        </mxCell>
        <mxCell id="_eQYFSkkjT8gTlAMDLFB-63" value="role_desc" style="ellipse;whiteSpace=wrap;html=1;rounded=0;" vertex="1" parent="1">
          <mxGeometry x="660" y="-427" width="90" height="40" as="geometry" />
        </mxCell>
        <mxCell id="_eQYFSkkjT8gTlAMDLFB-64" value="" style="edgeStyle=orthogonalEdgeStyle;rounded=0;orthogonalLoop=1;jettySize=auto;html=1;endArrow=none;endFill=0;" edge="1" parent="1" source="_eQYFSkkjT8gTlAMDLFB-65" target="_eQYFSkkjT8gTlAMDLFB-66">
          <mxGeometry relative="1" as="geometry" />
        </mxCell>
        <mxCell id="_eQYFSkkjT8gTlAMDLFB-65" value="LOGIN" style="whiteSpace=wrap;html=1;rounded=0;fillColor=#1ba1e2;strokeColor=#006EAF;fontColor=#ffffff;" vertex="1" parent="1">
          <mxGeometry x="380" y="-607" width="100" height="40" as="geometry" />
        </mxCell>
        <mxCell id="_eQYFSkkjT8gTlAMDLFB-66" value="#login_id" style="ellipse;whiteSpace=wrap;html=1;rounded=0;" vertex="1" parent="1">
          <mxGeometry x="370" y="-712" width="120" height="50" as="geometry" />
        </mxCell>
        <mxCell id="_eQYFSkkjT8gTlAMDLFB-67" style="edgeStyle=orthogonalEdgeStyle;rounded=0;orthogonalLoop=1;jettySize=auto;html=1;entryX=0.832;entryY=-0.085;entryDx=0;entryDy=0;entryPerimeter=0;endArrow=none;endFill=0;" edge="1" parent="1" source="_eQYFSkkjT8gTlAMDLFB-68" target="_eQYFSkkjT8gTlAMDLFB-65">
          <mxGeometry relative="1" as="geometry" />
        </mxCell>
        <mxCell id="_eQYFSkkjT8gTlAMDLFB-68" value="login_role_id" style="ellipse;whiteSpace=wrap;html=1;rounded=0;" vertex="1" parent="1">
          <mxGeometry x="480" y="-687" width="100" height="50" as="geometry" />
        </mxCell>
        <mxCell id="_eQYFSkkjT8gTlAMDLFB-69" style="edgeStyle=orthogonalEdgeStyle;rounded=0;orthogonalLoop=1;jettySize=auto;html=1;entryX=0.25;entryY=0;entryDx=0;entryDy=0;endArrow=none;endFill=0;" edge="1" parent="1" source="_eQYFSkkjT8gTlAMDLFB-70" target="_eQYFSkkjT8gTlAMDLFB-65">
          <mxGeometry relative="1" as="geometry" />
        </mxCell>
        <mxCell id="_eQYFSkkjT8gTlAMDLFB-70" value="login_username" style="ellipse;whiteSpace=wrap;html=1;rounded=0;" vertex="1" parent="1">
          <mxGeometry x="270" y="-662" width="100" height="50" as="geometry" />
        </mxCell>
        <mxCell id="_eQYFSkkjT8gTlAMDLFB-71" style="edgeStyle=orthogonalEdgeStyle;rounded=0;orthogonalLoop=1;jettySize=auto;html=1;entryX=1;entryY=0.5;entryDx=0;entryDy=0;endArrow=none;endFill=0;" edge="1" parent="1" source="_eQYFSkkjT8gTlAMDLFB-72" target="_eQYFSkkjT8gTlAMDLFB-65">
          <mxGeometry relative="1" as="geometry" />
        </mxCell>
        <mxCell id="_eQYFSkkjT8gTlAMDLFB-72" value="user_password" style="ellipse;whiteSpace=wrap;html=1;rounded=0;" vertex="1" parent="1">
          <mxGeometry x="510" y="-612" width="100" height="50" as="geometry" />
        </mxCell>
        <mxCell id="_eQYFSkkjT8gTlAMDLFB-73" value="PERMISSION" style="whiteSpace=wrap;html=1;rounded=0;fillColor=#1ba1e2;strokeColor=#006EAF;fontColor=#ffffff;" vertex="1" parent="1">
          <mxGeometry x="375" y="-380" width="110" height="47" as="geometry" />
        </mxCell>
        <mxCell id="_eQYFSkkjT8gTlAMDLFB-80" style="edgeStyle=orthogonalEdgeStyle;rounded=0;orthogonalLoop=1;jettySize=auto;html=1;entryX=0.822;entryY=0.015;entryDx=0;entryDy=0;entryPerimeter=0;endArrow=none;endFill=0;" edge="1" parent="1" source="_eQYFSkkjT8gTlAMDLFB-75" target="_eQYFSkkjT8gTlAMDLFB-73">
          <mxGeometry relative="1" as="geometry" />
        </mxCell>
        <mxCell id="_eQYFSkkjT8gTlAMDLFB-75" value="#per_id" style="ellipse;whiteSpace=wrap;html=1;rounded=0;" vertex="1" parent="1">
          <mxGeometry x="490" y="-430" width="90" height="40" as="geometry" />
        </mxCell>
        <mxCell id="_eQYFSkkjT8gTlAMDLFB-81" style="edgeStyle=orthogonalEdgeStyle;rounded=0;orthogonalLoop=1;jettySize=auto;html=1;entryX=1;entryY=0.5;entryDx=0;entryDy=0;endArrow=none;endFill=0;" edge="1" parent="1" source="_eQYFSkkjT8gTlAMDLFB-76" target="_eQYFSkkjT8gTlAMDLFB-73">
          <mxGeometry relative="1" as="geometry" />
        </mxCell>
        <mxCell id="_eQYFSkkjT8gTlAMDLFB-76" value="per_role_id" style="ellipse;whiteSpace=wrap;html=1;rounded=0;" vertex="1" parent="1">
          <mxGeometry x="530" y="-376.5" width="90" height="40" as="geometry" />
        </mxCell>
        <mxCell id="_eQYFSkkjT8gTlAMDLFB-82" style="edgeStyle=orthogonalEdgeStyle;rounded=0;orthogonalLoop=1;jettySize=auto;html=1;entryX=0.912;entryY=0.993;entryDx=0;entryDy=0;entryPerimeter=0;endArrow=none;endFill=0;" edge="1" parent="1" source="_eQYFSkkjT8gTlAMDLFB-77" target="_eQYFSkkjT8gTlAMDLFB-73">
          <mxGeometry relative="1" as="geometry" />
        </mxCell>
        <mxCell id="_eQYFSkkjT8gTlAMDLFB-77" value="per_module" style="ellipse;whiteSpace=wrap;html=1;rounded=0;" vertex="1" parent="1">
          <mxGeometry x="500" y="-323" width="90" height="40" as="geometry" />
        </mxCell>
        <mxCell id="_eQYFSkkjT8gTlAMDLFB-83" style="edgeStyle=orthogonalEdgeStyle;rounded=0;orthogonalLoop=1;jettySize=auto;html=1;entryX=0.5;entryY=1;entryDx=0;entryDy=0;endArrow=none;endFill=0;" edge="1" parent="1" source="_eQYFSkkjT8gTlAMDLFB-78" target="_eQYFSkkjT8gTlAMDLFB-73">
          <mxGeometry relative="1" as="geometry" />
        </mxCell>
        <mxCell id="_eQYFSkkjT8gTlAMDLFB-78" value="per_name" style="ellipse;whiteSpace=wrap;html=1;rounded=0;" vertex="1" parent="1">
          <mxGeometry x="385" y="-303" width="90" height="40" as="geometry" />
        </mxCell>
        <mxCell id="_eQYFSkkjT8gTlAMDLFB-87" value="" style="edgeStyle=orthogonalEdgeStyle;rounded=0;orthogonalLoop=1;jettySize=auto;html=1;endArrow=none;endFill=0;" edge="1" parent="1" source="_eQYFSkkjT8gTlAMDLFB-84" target="_eQYFSkkjT8gTlAMDLFB-86">
          <mxGeometry relative="1" as="geometry" />
        </mxCell>
        <mxCell id="_eQYFSkkjT8gTlAMDLFB-94" value="" style="edgeStyle=orthogonalEdgeStyle;rounded=0;orthogonalLoop=1;jettySize=auto;html=1;endArrow=none;endFill=0;" edge="1" parent="1" source="_eQYFSkkjT8gTlAMDLFB-84" target="_eQYFSkkjT8gTlAMDLFB-93">
          <mxGeometry relative="1" as="geometry" />
        </mxCell>
        <mxCell id="_eQYFSkkjT8gTlAMDLFB-114" value="" style="edgeStyle=orthogonalEdgeStyle;rounded=0;orthogonalLoop=1;jettySize=auto;html=1;endArrow=none;endFill=0;" edge="1" parent="1" source="_eQYFSkkjT8gTlAMDLFB-84" target="_eQYFSkkjT8gTlAMDLFB-113">
          <mxGeometry relative="1" as="geometry" />
        </mxCell>
        <mxCell id="_eQYFSkkjT8gTlAMDLFB-84" value="MANAGE" style="rhombus;whiteSpace=wrap;html=1;rounded=0;" vertex="1" parent="1">
          <mxGeometry x="190" y="-147" width="80" height="80" as="geometry" />
        </mxCell>
        <mxCell id="_eQYFSkkjT8gTlAMDLFB-95" style="edgeStyle=orthogonalEdgeStyle;rounded=0;orthogonalLoop=1;jettySize=auto;html=1;entryX=0.5;entryY=1;entryDx=0;entryDy=0;endArrow=none;endFill=0;" edge="1" parent="1" source="_eQYFSkkjT8gTlAMDLFB-86" target="_eQYFSkkjT8gTlAMDLFB-88">
          <mxGeometry relative="1" as="geometry" />
        </mxCell>
        <mxCell id="_eQYFSkkjT8gTlAMDLFB-86" value="PRODUCT" style="whiteSpace=wrap;html=1;rounded=0;fillColor=#1ba1e2;strokeColor=#006EAF;fontColor=#ffffff;" vertex="1" parent="1">
          <mxGeometry x="20" y="-127" width="110" height="40" as="geometry" />
        </mxCell>
        <mxCell id="_eQYFSkkjT8gTlAMDLFB-88" value="prod_qty" style="ellipse;whiteSpace=wrap;html=1;" vertex="1" parent="1">
          <mxGeometry x="25" y="-197" width="100" height="40" as="geometry" />
        </mxCell>
        <mxCell id="_eQYFSkkjT8gTlAMDLFB-97" style="edgeStyle=orthogonalEdgeStyle;rounded=0;orthogonalLoop=1;jettySize=auto;html=1;entryX=0.189;entryY=-0.045;entryDx=0;entryDy=0;entryPerimeter=0;endArrow=none;endFill=0;" edge="1" parent="1" source="_eQYFSkkjT8gTlAMDLFB-89" target="_eQYFSkkjT8gTlAMDLFB-86">
          <mxGeometry relative="1" as="geometry" />
        </mxCell>
        <mxCell id="_eQYFSkkjT8gTlAMDLFB-89" value="#prod_id" style="ellipse;whiteSpace=wrap;html=1;" vertex="1" parent="1">
          <mxGeometry x="-80" y="-210" width="100" height="40" as="geometry" />
        </mxCell>
        <mxCell id="_eQYFSkkjT8gTlAMDLFB-96" style="edgeStyle=orthogonalEdgeStyle;rounded=0;orthogonalLoop=1;jettySize=auto;html=1;entryX=0;entryY=0.5;entryDx=0;entryDy=0;endArrow=none;endFill=0;" edge="1" parent="1" source="_eQYFSkkjT8gTlAMDLFB-90" target="_eQYFSkkjT8gTlAMDLFB-86">
          <mxGeometry relative="1" as="geometry" />
        </mxCell>
        <mxCell id="_eQYFSkkjT8gTlAMDLFB-90" value="prod_cus_id" style="ellipse;whiteSpace=wrap;html=1;" vertex="1" parent="1">
          <mxGeometry x="-120" y="-127" width="100" height="40" as="geometry" />
        </mxCell>
        <mxCell id="_eQYFSkkjT8gTlAMDLFB-98" style="edgeStyle=orthogonalEdgeStyle;rounded=0;orthogonalLoop=1;jettySize=auto;html=1;entryX=0.25;entryY=1;entryDx=0;entryDy=0;endArrow=none;endFill=0;" edge="1" parent="1" source="_eQYFSkkjT8gTlAMDLFB-91" target="_eQYFSkkjT8gTlAMDLFB-86">
          <mxGeometry relative="1" as="geometry" />
        </mxCell>
        <mxCell id="_eQYFSkkjT8gTlAMDLFB-91" value="prod_desc" style="ellipse;whiteSpace=wrap;html=1;" vertex="1" parent="1">
          <mxGeometry x="-100" y="-80" width="100" height="40" as="geometry" />
        </mxCell>
        <mxCell id="_eQYFSkkjT8gTlAMDLFB-99" style="edgeStyle=orthogonalEdgeStyle;rounded=0;orthogonalLoop=1;jettySize=auto;html=1;entryX=0.625;entryY=1.075;entryDx=0;entryDy=0;entryPerimeter=0;endArrow=none;endFill=0;" edge="1" parent="1" source="_eQYFSkkjT8gTlAMDLFB-92">
          <mxGeometry relative="1" as="geometry">
            <mxPoint x="88.75" y="-87" as="targetPoint" />
          </mxGeometry>
        </mxCell>
        <mxCell id="_eQYFSkkjT8gTlAMDLFB-92" value="prod_cat" style="ellipse;whiteSpace=wrap;html=1;" vertex="1" parent="1">
          <mxGeometry x="10" y="-40" width="100" height="40" as="geometry" />
        </mxCell>
        <mxCell id="_eQYFSkkjT8gTlAMDLFB-93" value="CUSTOMER" style="whiteSpace=wrap;html=1;rounded=0;fillColor=#1ba1e2;strokeColor=#006EAF;fontColor=#ffffff;" vertex="1" parent="1">
          <mxGeometry x="410" y="-127" width="90" height="40" as="geometry" />
        </mxCell>
        <mxCell id="_eQYFSkkjT8gTlAMDLFB-107" style="edgeStyle=orthogonalEdgeStyle;rounded=0;orthogonalLoop=1;jettySize=auto;html=1;entryX=0.5;entryY=0;entryDx=0;entryDy=0;endArrow=none;endFill=0;" edge="1" parent="1" source="_eQYFSkkjT8gTlAMDLFB-100" target="_eQYFSkkjT8gTlAMDLFB-93">
          <mxGeometry relative="1" as="geometry" />
        </mxCell>
        <mxCell id="_eQYFSkkjT8gTlAMDLFB-100" value="#cus_id" style="ellipse;whiteSpace=wrap;html=1;" vertex="1" parent="1">
          <mxGeometry x="405" y="-210" width="100" height="40" as="geometry" />
        </mxCell>
        <mxCell id="_eQYFSkkjT8gTlAMDLFB-108" style="edgeStyle=orthogonalEdgeStyle;rounded=0;orthogonalLoop=1;jettySize=auto;html=1;entryX=0.75;entryY=0;entryDx=0;entryDy=0;endArrow=none;endFill=0;" edge="1" parent="1" source="_eQYFSkkjT8gTlAMDLFB-101" target="_eQYFSkkjT8gTlAMDLFB-93">
          <mxGeometry relative="1" as="geometry" />
        </mxCell>
        <mxCell id="_eQYFSkkjT8gTlAMDLFB-101" value="cus_phone" style="ellipse;whiteSpace=wrap;html=1;" vertex="1" parent="1">
          <mxGeometry x="510" y="-187" width="100" height="40" as="geometry" />
        </mxCell>
        <mxCell id="_eQYFSkkjT8gTlAMDLFB-103" style="edgeStyle=orthogonalEdgeStyle;rounded=0;orthogonalLoop=1;jettySize=auto;html=1;entryX=0.16;entryY=0.99;entryDx=0;entryDy=0;entryPerimeter=0;endArrow=none;endFill=0;" edge="1" parent="1" source="_eQYFSkkjT8gTlAMDLFB-102">
          <mxGeometry relative="1" as="geometry">
            <mxPoint x="196" y="-448.4000000000001" as="targetPoint" />
          </mxGeometry>
        </mxCell>
        <mxCell id="_eQYFSkkjT8gTlAMDLFB-102" value="user_phone" style="ellipse;whiteSpace=wrap;html=1;" vertex="1" parent="1">
          <mxGeometry x="40" y="-410" width="100" height="40" as="geometry" />
        </mxCell>
        <mxCell id="_eQYFSkkjT8gTlAMDLFB-109" style="edgeStyle=orthogonalEdgeStyle;rounded=0;orthogonalLoop=1;jettySize=auto;html=1;entryX=1;entryY=0.5;entryDx=0;entryDy=0;endArrow=none;endFill=0;" edge="1" parent="1" source="_eQYFSkkjT8gTlAMDLFB-104" target="_eQYFSkkjT8gTlAMDLFB-93">
          <mxGeometry relative="1" as="geometry" />
        </mxCell>
        <mxCell id="_eQYFSkkjT8gTlAMDLFB-104" value="cus_name" style="ellipse;whiteSpace=wrap;html=1;" vertex="1" parent="1">
          <mxGeometry x="550" y="-140" width="100" height="40" as="geometry" />
        </mxCell>
        <mxCell id="_eQYFSkkjT8gTlAMDLFB-110" style="edgeStyle=orthogonalEdgeStyle;rounded=0;orthogonalLoop=1;jettySize=auto;html=1;entryX=0.75;entryY=1;entryDx=0;entryDy=0;endArrow=none;endFill=0;" edge="1" parent="1" source="_eQYFSkkjT8gTlAMDLFB-105" target="_eQYFSkkjT8gTlAMDLFB-93">
          <mxGeometry relative="1" as="geometry" />
        </mxCell>
        <mxCell id="_eQYFSkkjT8gTlAMDLFB-105" value="cus_address" style="ellipse;whiteSpace=wrap;html=1;" vertex="1" parent="1">
          <mxGeometry x="520" y="-80" width="100" height="40" as="geometry" />
        </mxCell>
        <mxCell id="_eQYFSkkjT8gTlAMDLFB-111" style="edgeStyle=orthogonalEdgeStyle;rounded=0;orthogonalLoop=1;jettySize=auto;html=1;endArrow=none;endFill=0;" edge="1" parent="1" source="_eQYFSkkjT8gTlAMDLFB-106" target="_eQYFSkkjT8gTlAMDLFB-93">
          <mxGeometry relative="1" as="geometry" />
        </mxCell>
        <mxCell id="_eQYFSkkjT8gTlAMDLFB-106" value="cus_pwd" style="ellipse;whiteSpace=wrap;html=1;" vertex="1" parent="1">
          <mxGeometry x="405" y="-50" width="100" height="40" as="geometry" />
        </mxCell>
        <mxCell id="_eQYFSkkjT8gTlAMDLFB-126" value="" style="edgeStyle=orthogonalEdgeStyle;rounded=0;orthogonalLoop=1;jettySize=auto;html=1;endArrow=none;endFill=0;" edge="1" parent="1" source="_eQYFSkkjT8gTlAMDLFB-113" target="_eQYFSkkjT8gTlAMDLFB-125">
          <mxGeometry relative="1" as="geometry" />
        </mxCell>
        <mxCell id="_eQYFSkkjT8gTlAMDLFB-113" value="PAYMENT" style="whiteSpace=wrap;html=1;rounded=0;fillColor=#1ba1e2;strokeColor=#006EAF;fontColor=#ffffff;" vertex="1" parent="1">
          <mxGeometry x="180" y="63" width="100" height="37" as="geometry" />
        </mxCell>
        <mxCell id="_eQYFSkkjT8gTlAMDLFB-119" style="edgeStyle=orthogonalEdgeStyle;rounded=0;orthogonalLoop=1;jettySize=auto;html=1;endArrow=none;endFill=0;entryX=0.701;entryY=0;entryDx=0;entryDy=0;entryPerimeter=0;" edge="1" parent="1" source="_eQYFSkkjT8gTlAMDLFB-115" target="_eQYFSkkjT8gTlAMDLFB-113">
          <mxGeometry relative="1" as="geometry">
            <mxPoint x="250" y="60" as="targetPoint" />
            <Array as="points">
              <mxPoint x="250" y="20" />
              <mxPoint x="250" y="60" />
            </Array>
          </mxGeometry>
        </mxCell>
        <mxCell id="_eQYFSkkjT8gTlAMDLFB-115" value="pay_desc" style="ellipse;whiteSpace=wrap;html=1;" vertex="1" parent="1">
          <mxGeometry x="275" width="100" height="40" as="geometry" />
        </mxCell>
        <mxCell id="_eQYFSkkjT8gTlAMDLFB-120" style="edgeStyle=orthogonalEdgeStyle;rounded=0;orthogonalLoop=1;jettySize=auto;html=1;entryX=1;entryY=0.5;entryDx=0;entryDy=0;endArrow=none;endFill=0;" edge="1" parent="1" source="_eQYFSkkjT8gTlAMDLFB-116" target="_eQYFSkkjT8gTlAMDLFB-113">
          <mxGeometry relative="1" as="geometry" />
        </mxCell>
        <mxCell id="_eQYFSkkjT8gTlAMDLFB-116" value="pay_date" style="ellipse;whiteSpace=wrap;html=1;" vertex="1" parent="1">
          <mxGeometry x="325" y="61.5" width="100" height="40" as="geometry" />
        </mxCell>
        <mxCell id="_eQYFSkkjT8gTlAMDLFB-121" style="edgeStyle=orthogonalEdgeStyle;rounded=0;orthogonalLoop=1;jettySize=auto;html=1;entryX=0.75;entryY=1;entryDx=0;entryDy=0;endArrow=none;endFill=0;" edge="1" parent="1" source="_eQYFSkkjT8gTlAMDLFB-117" target="_eQYFSkkjT8gTlAMDLFB-113">
          <mxGeometry relative="1" as="geometry" />
        </mxCell>
        <mxCell id="_eQYFSkkjT8gTlAMDLFB-117" value="pay_amt" style="ellipse;whiteSpace=wrap;html=1;" vertex="1" parent="1">
          <mxGeometry x="325" y="110" width="100" height="40" as="geometry" />
        </mxCell>
        <mxCell id="_eQYFSkkjT8gTlAMDLFB-122" style="edgeStyle=orthogonalEdgeStyle;rounded=0;orthogonalLoop=1;jettySize=auto;html=1;entryX=0.5;entryY=1;entryDx=0;entryDy=0;endArrow=none;endFill=0;" edge="1" parent="1" source="_eQYFSkkjT8gTlAMDLFB-118" target="_eQYFSkkjT8gTlAMDLFB-113">
          <mxGeometry relative="1" as="geometry">
            <Array as="points">
              <mxPoint x="160" y="130" />
              <mxPoint x="200" y="130" />
              <mxPoint x="200" y="100" />
            </Array>
          </mxGeometry>
        </mxCell>
        <mxCell id="_eQYFSkkjT8gTlAMDLFB-118" value="#pay_id" style="ellipse;whiteSpace=wrap;html=1;" vertex="1" parent="1">
          <mxGeometry x="110" y="180" width="100" height="40" as="geometry" />
        </mxCell>
        <mxCell id="_eQYFSkkjT8gTlAMDLFB-124" style="edgeStyle=orthogonalEdgeStyle;rounded=0;orthogonalLoop=1;jettySize=auto;html=1;endArrow=none;endFill=0;" edge="1" parent="1" source="_eQYFSkkjT8gTlAMDLFB-123">
          <mxGeometry relative="1" as="geometry">
            <mxPoint x="230.00000000000023" y="100" as="targetPoint" />
          </mxGeometry>
        </mxCell>
        <mxCell id="_eQYFSkkjT8gTlAMDLFB-123" value="pay_cus_id" style="ellipse;whiteSpace=wrap;html=1;" vertex="1" parent="1">
          <mxGeometry x="180" y="140" width="100" height="40" as="geometry" />
        </mxCell>
        <mxCell id="_eQYFSkkjT8gTlAMDLFB-128" value="" style="edgeStyle=orthogonalEdgeStyle;rounded=0;orthogonalLoop=1;jettySize=auto;html=1;endArrow=none;endFill=0;" edge="1" parent="1" source="_eQYFSkkjT8gTlAMDLFB-125" target="_eQYFSkkjT8gTlAMDLFB-127">
          <mxGeometry relative="1" as="geometry" />
        </mxCell>
        <mxCell id="_eQYFSkkjT8gTlAMDLFB-125" value="HAS" style="rhombus;whiteSpace=wrap;html=1;rounded=0;" vertex="1" parent="1">
          <mxGeometry x="-80" y="101.5" width="80" height="80" as="geometry" />
        </mxCell>
        <mxCell id="_eQYFSkkjT8gTlAMDLFB-127" value="ORDER" style="whiteSpace=wrap;html=1;rounded=0;fillColor=#1ba1e2;strokeColor=#006EAF;fontColor=#ffffff;" vertex="1" parent="1">
          <mxGeometry x="-95" y="271.5" width="110" height="38.5" as="geometry" />
        </mxCell>
        <mxCell id="_eQYFSkkjT8gTlAMDLFB-132" style="edgeStyle=orthogonalEdgeStyle;rounded=0;orthogonalLoop=1;jettySize=auto;html=1;endArrow=none;endFill=0;" edge="1" parent="1" source="_eQYFSkkjT8gTlAMDLFB-129">
          <mxGeometry relative="1" as="geometry">
            <mxPoint x="-70" y="271" as="targetPoint" />
          </mxGeometry>
        </mxCell>
        <mxCell id="_eQYFSkkjT8gTlAMDLFB-129" value="#ord_id" style="ellipse;whiteSpace=wrap;html=1;" vertex="1" parent="1">
          <mxGeometry x="-190" y="211" width="100" height="40" as="geometry" />
        </mxCell>
        <mxCell id="_eQYFSkkjT8gTlAMDLFB-133" style="edgeStyle=orthogonalEdgeStyle;rounded=0;orthogonalLoop=1;jettySize=auto;html=1;endArrow=none;endFill=0;" edge="1" parent="1" source="_eQYFSkkjT8gTlAMDLFB-130" target="_eQYFSkkjT8gTlAMDLFB-127">
          <mxGeometry relative="1" as="geometry" />
        </mxCell>
        <mxCell id="_eQYFSkkjT8gTlAMDLFB-130" value="ord_type" style="ellipse;whiteSpace=wrap;html=1;" vertex="1" parent="1">
          <mxGeometry x="-230" y="270.75" width="100" height="40" as="geometry" />
        </mxCell>
        <mxCell id="_eQYFSkkjT8gTlAMDLFB-135" style="edgeStyle=orthogonalEdgeStyle;rounded=0;orthogonalLoop=1;jettySize=auto;html=1;entryX=0.5;entryY=1;entryDx=0;entryDy=0;endArrow=none;endFill=0;" edge="1" parent="1" source="_eQYFSkkjT8gTlAMDLFB-131" target="_eQYFSkkjT8gTlAMDLFB-127">
          <mxGeometry relative="1" as="geometry" />
        </mxCell>
        <mxCell id="_eQYFSkkjT8gTlAMDLFB-131" value="ord_desc" style="ellipse;whiteSpace=wrap;html=1;" vertex="1" parent="1">
          <mxGeometry x="-90" y="350" width="100" height="40" as="geometry" />
        </mxCell>
      </root>
    </mxGraphModel>
  </diagram>
</mxfile>
